<?xml version="1.0" encoding="UTF-8" standalone="no"?>
<!-- Created with Inkscape (http://www.inkscape.org/) -->

<svg
   xmlns:dc="http://purl.org/dc/elements/1.1/"
   xmlns:cc="http://creativecommons.org/ns#"
   xmlns:rdf="http://www.w3.org/1999/02/22-rdf-syntax-ns#"
   xmlns:svg="http://www.w3.org/2000/svg"
   xmlns="http://www.w3.org/2000/svg"
   xmlns:sodipodi="http://sodipodi.sourceforge.net/DTD/sodipodi-0.dtd"
   xmlns:inkscape="http://www.inkscape.org/namespaces/inkscape"
   width="589.26685mm"
   height="651.39612mm"
   viewBox="0 0 2087.9533 2308.0964"
   id="svg2"
   version="1.1"
   inkscape:version="0.92.1 r15371"
   sodipodi:docname="ui.svg">
  <defs
     id="defs4" />
  <sodipodi:namedview
     id="base"
     pagecolor="#ffffff"
     bordercolor="#666666"
     borderopacity="1.0"
     inkscape:pageopacity="0.0"
     inkscape:pageshadow="2"
     inkscape:zoom="0.24748737"
     inkscape:cx="1160.4176"
     inkscape:cy="1411.3707"
     inkscape:document-units="px"
     inkscape:current-layer="layer1"
     showgrid="false"
     inkscape:window-width="1280"
     inkscape:window-height="1000"
     inkscape:window-x="0"
     inkscape:window-y="24"
     inkscape:window-maximized="1"
     showborder="true"
     inkscape:showpageshadow="true"
     fit-margin-top="32"
     fit-margin-left="32"
     fit-margin-right="32"
     fit-margin-bottom="32"
     showguides="false" />
  <metadata
     id="metadata7">
    <rdf:RDF>
      <cc:Work
         rdf:about="">
        <dc:format>image/svg+xml</dc:format>
        <dc:type
           rdf:resource="http://purl.org/dc/dcmitype/StillImage" />
        <dc:title></dc:title>
      </cc:Work>
    </rdf:RDF>
  </metadata>
  <g
     inkscape:label="Capa 1"
     inkscape:groupmode="layer"
     id="layer1"
     transform="translate(856.34936,769.05862)">
    <rect
       transform="scale(-1,1)"
       ry="0"
       y="257.5051"
       x="-210.57143"
       height="256"
       width="256"
       id="rect4254"
       style="fill:#0a586a;fill-opacity:1"
       inkscape:export-xdpi="90"
       inkscape:export-ydpi="90" />
    <path
       style="fill:#000000;fill-opacity:1;stroke:#15b2d6;stroke-width:5.0999999;stroke-miterlimit:4;stroke-dasharray:none;stroke-opacity:0.70588235"
       d="m -39.713724,257.5051 c -3.16572,0 -5.71485,2.54913 -5.71485,5.71485 v 244.57031 c 0,3.16571 2.54913,5.71484 5.71485,5.71484 H 204.85659 c 3.16571,0 5.71484,-2.54913 5.71484,-5.71484 V 263.21995 c 0,-3.16572 -2.54913,-5.71485 -5.71484,-5.71485 z m 14.33007,15 H 190.52651 c 2.79473,0 5.04492,2.25019 5.04492,5.04493 v 215.91015 c 0,2.79473 -2.25019,5.04492 -5.04492,5.04492 H -25.383654 c -2.79473,0 -5.04492,-2.25019 -5.04492,-5.04492 V 277.55003 c 0,-2.79474 2.25019,-5.04493 5.04492,-5.04493 z"
       id="rect4256-3"
       inkscape:connector-curvature="0"
       inkscape:export-filename="/home/mateo/Escritorio/blueBtnL.png"
       inkscape:export-xdpi="88.242043"
       inkscape:export-ydpi="88.242043" />
    <rect
       inkscape:export-ydpi="90"
       inkscape:export-xdpi="90"
       transform="scale(-1,1)"
       ry="0"
       y="-655.67279"
       x="-512"
       height="256"
       width="256"
       id="rect4182"
       style="fill:#00ff00;fill-opacity:0.21463414" />
    <rect
       style="fill:#0d7f57;fill-opacity:1"
       id="rect4184"
       width="256"
       height="256"
       x="256"
       y="-655.67279"
       ry="49.23077" />
    <rect
       ry="46.153847"
       y="-639.67279"
       x="256"
       height="240"
       width="240"
       id="rect4186"
       style="fill:#15d492;fill-opacity:1" />
    <rect
       inkscape:export-ydpi="90"
       inkscape:export-xdpi="90"
       style="fill:#00ff00;fill-opacity:0.21463414"
       id="rect4189"
       width="256"
       height="256"
       x="564.57141"
       y="-655.67279"
       ry="0" />
    <rect
       ry="49.23077"
       y="-655.67279"
       x="564.57141"
       height="256"
       width="256"
       id="rect4191"
       style="fill:#bb0600;fill-opacity:1" />
    <rect
       style="fill:#ff605b;fill-opacity:1"
       id="rect4193"
       width="240"
       height="240"
       x="564.57141"
       y="-639.67279"
       ry="46.153847" />
    <rect
       style="fill:#00ff00;fill-opacity:0.21463414"
       id="rect4195"
       width="256"
       height="256"
       x="-210.57143"
       y="-55.932358"
       ry="0"
       transform="scale(-1,1)" />
    <rect
       inkscape:export-ydpi="90"
       inkscape:export-xdpi="90"
       style="fill:#00ff00;fill-opacity:0.21463414"
       id="rect4197"
       width="256"
       height="256"
       x="-210.57143"
       y="-655.67279"
       ry="0"
       transform="scale(-1,1)" />
    <rect
       ry="49.23077"
       y="-655.67279"
       x="-45.42857"
       height="256"
       width="256"
       id="rect4199"
       style="fill:#0d7289;fill-opacity:1" />
    <rect
       style="fill:#15b2d6;fill-opacity:1"
       id="rect4201"
       width="240"
       height="240"
       x="-45.42857"
       y="-639.67279"
       ry="46.153847" />
    <rect
       inkscape:export-ydpi="90"
       inkscape:export-xdpi="90"
       style="fill:#00ff00;fill-opacity:0.21463414"
       id="rect4203"
       width="256"
       height="256"
       x="-512"
       y="-342.81564"
       ry="0"
       transform="scale(-1,1)" />
    <rect
       ry="49.23077"
       y="-342.81564"
       x="256"
       height="256"
       width="256"
       id="rect4205"
       style="fill:#000000;fill-opacity:1" />
    <rect
       style="fill:#0a6646;fill-opacity:1"
       id="rect4207"
       width="240"
       height="240"
       x="256"
       y="-326.81564"
       ry="46.153847" />
    <rect
       inkscape:export-ydpi="90"
       inkscape:export-xdpi="90"
       ry="0"
       y="-342.81564"
       x="564.57141"
       height="256"
       width="256"
       id="rect4209"
       style="fill:#00ff00;fill-opacity:0.21463414" />
    <rect
       style="fill:#000000;fill-opacity:1"
       id="rect4211"
       width="256"
       height="256"
       x="564.57141"
       y="-342.81564"
       ry="49.23077" />
    <rect
       ry="46.153847"
       y="-326.81564"
       x="564.57141"
       height="240"
       width="240"
       id="rect4213"
       style="fill:#e20700;fill-opacity:1" />
    <rect
       inkscape:export-ydpi="90"
       inkscape:export-xdpi="90"
       transform="scale(-1,1)"
       ry="0"
       y="-342.81564"
       x="-210.57143"
       height="256"
       width="256"
       id="rect4215"
       style="fill:#00ff00;fill-opacity:0.21463414" />
    <rect
       style="fill:#000000;fill-opacity:1"
       id="rect4217"
       width="256"
       height="256"
       x="-45.42857"
       y="-342.81564"
       ry="49.23077" />
    <rect
       ry="46.153847"
       y="-326.81564"
       x="-45.42857"
       height="240"
       width="240"
       id="rect4219"
       style="fill:#0a586a;fill-opacity:1" />
    <rect
       inkscape:export-ydpi="90"
       inkscape:export-xdpi="90"
       transform="scale(-1,1)"
       ry="0"
       y="-55.932358"
       x="-512"
       height="256"
       width="256"
       id="rect4221"
       style="fill:#00ff00;fill-opacity:0.21463414" />
    <rect
       inkscape:export-ydpi="90"
       inkscape:export-xdpi="90"
       style="fill:#00ff00;fill-opacity:0.21463414"
       id="rect4229"
       width="256"
       height="256"
       x="564.57141"
       y="-55.932358"
       ry="0" />
    <rect
       inkscape:export-ydpi="90"
       inkscape:export-xdpi="90"
       style="fill:#15b2d6;fill-opacity:1"
       id="rect4237"
       width="256"
       height="256"
       x="-210.57143"
       y="558.53058"
       ry="0"
       transform="scale(-1,1)" />
    <path
       inkscape:connector-curvature="0"
       id="path4239"
       d="m -39.713724,558.53056 c -3.16572,0 -5.71485,2.54913 -5.71485,5.71485 v 244.57031 c 0,3.16571 2.54913,5.71484 5.71485,5.71484 H 204.85659 c 3.16571,0 5.71484,-2.54913 5.71484,-5.71484 V 564.24541 c 0,-3.16572 -2.54913,-5.71485 -5.71484,-5.71485 z m 14.33007,15 H 190.52651 c 2.79473,0 5.04492,2.25019 5.04492,5.04493 v 215.91015 c 0,2.79473 -2.25019,5.04492 -5.04492,5.04492 H -25.383654 c -2.79473,0 -5.04492,-2.25019 -5.04492,-5.04492 V 578.57549 c 0,-2.79474 2.25019,-5.04493 5.04492,-5.04493 z"
       style="fill:#000000;fill-opacity:1;stroke:#15b2d6;stroke-width:5.0999999;stroke-miterlimit:4;stroke-dasharray:none;stroke-opacity:0.70588235"
       inkscape:export-filename="/home/mateo/Escritorio/blueBtnDL.png"
       inkscape:export-xdpi="88.242043"
       inkscape:export-ydpi="88.242043" />
    <rect
       inkscape:export-ydpi="90"
       inkscape:export-xdpi="90"
       style="fill:#084d2d;fill-opacity:1"
       id="rect4265"
       width="256"
       height="256"
       x="-519.6781"
       y="257.5051"
       ry="0"
       transform="scale(-1,1)" />
    <path
       inkscape:connector-curvature="0"
       id="path4267"
       d="m 269.39295,257.5051 c -3.16572,0 -5.71485,2.54913 -5.71485,5.71485 v 244.57031 c 0,3.16571 2.54913,5.71484 5.71485,5.71484 h 244.57032 c 3.16571,0 5.71484,-2.54913 5.71484,-5.71484 V 263.21995 c 0,-3.16572 -2.54913,-5.71485 -5.71484,-5.71485 z m 14.33007,15 h 215.91017 c 2.79473,0 5.04492,2.25019 5.04492,5.04493 v 215.91015 c 0,2.79473 -2.25019,5.04492 -5.04492,5.04492 H 283.72302 c -2.79473,0 -5.04492,-2.25019 -5.04492,-5.04492 V 277.55003 c 0,-2.79474 2.25019,-5.04493 5.04492,-5.04493 z"
       style="fill:#000000;fill-opacity:1;stroke:#15d492;stroke-width:5.0999999;stroke-miterlimit:4;stroke-dasharray:none;stroke-opacity:1"
       inkscape:export-filename="/home/mateo/Escritorio/greenBtnL.png"
       inkscape:export-xdpi="88.242043"
       inkscape:export-ydpi="88.242043" />
    <rect
       transform="scale(-1,1)"
       ry="0"
       y="558.53058"
       x="-519.6781"
       height="256"
       width="256"
       id="rect4269"
       style="fill:#15d492;fill-opacity:1"
       inkscape:export-xdpi="90"
       inkscape:export-ydpi="90" />
    <path
       style="fill:#000000;fill-opacity:1;stroke:#15d492;stroke-width:5.0999999;stroke-miterlimit:4;stroke-dasharray:none;stroke-opacity:1"
       d="m 269.39295,558.53056 c -3.16572,0 -5.71485,2.54913 -5.71485,5.71485 v 244.57031 c 0,3.16571 2.54913,5.71484 5.71485,5.71484 h 244.57032 c 3.16571,0 5.71484,-2.54913 5.71484,-5.71484 V 564.24541 c 0,-3.16572 -2.54913,-5.71485 -5.71484,-5.71485 z m 14.33007,15 h 215.91017 c 2.79473,0 5.04492,2.25019 5.04492,5.04493 v 215.91015 c 0,2.79473 -2.25019,5.04492 -5.04492,5.04492 H 283.72302 c -2.79473,0 -5.04492,-2.25019 -5.04492,-5.04492 V 578.57549 c 0,-2.79474 2.25019,-5.04493 5.04492,-5.04493 z"
       id="path4271"
       inkscape:connector-curvature="0"
       inkscape:export-filename="/home/mateo/Escritorio/greenBtnDL.png"
       inkscape:export-xdpi="88.242043"
       inkscape:export-ydpi="88.242043" />
    <rect
       transform="scale(-1,1)"
       ry="0"
       y="257.5051"
       x="-820.70355"
       height="256"
       width="256"
       id="rect4273"
       style="fill:#e20700;fill-opacity:1"
       inkscape:export-xdpi="90"
       inkscape:export-ydpi="90" />
    <path
       style="fill:#000000;fill-opacity:1;stroke:#ff605b;stroke-width:5.0999999;stroke-miterlimit:4;stroke-dasharray:none;stroke-opacity:1"
       d="m 570.41841,257.5051 c -3.16572,0 -5.71485,2.54913 -5.71485,5.71485 v 244.57031 c 0,3.16571 2.54913,5.71484 5.71485,5.71484 h 244.57032 c 3.16571,0 5.71484,-2.54913 5.71484,-5.71484 V 263.21995 c 0,-3.16572 -2.54913,-5.71485 -5.71484,-5.71485 z m 14.33007,15 h 215.91017 c 2.79473,0 5.04492,2.25019 5.04492,5.04493 v 215.91015 c 0,2.79473 -2.25019,5.04492 -5.04492,5.04492 H 584.74848 c -2.79473,0 -5.04492,-2.25019 -5.04492,-5.04492 V 277.55003 c 0,-2.79474 2.25019,-5.04493 5.04492,-5.04493 z"
       id="path4275"
       inkscape:connector-curvature="0"
       inkscape:export-filename="/home/mateo/Escritorio/redBtnL.png"
       inkscape:export-xdpi="88.242043"
       inkscape:export-ydpi="88.242043" />
    <rect
       inkscape:export-ydpi="90"
       inkscape:export-xdpi="90"
       style="fill:#ff605b;fill-opacity:1"
       id="rect4277"
       width="256"
       height="256"
       x="-820.70355"
       y="558.53058"
       ry="0"
       transform="scale(-1,1)" />
    <path
       inkscape:connector-curvature="0"
       id="path4279"
       d="m 570.41841,558.53056 c -3.16572,0 -5.71485,2.54913 -5.71485,5.71485 v 244.57031 c 0,3.16571 2.54913,5.71484 5.71485,5.71484 h 244.57032 c 3.16571,0 5.71484,-2.54913 5.71484,-5.71484 V 564.24541 c 0,-3.16572 -2.54913,-5.71485 -5.71484,-5.71485 z m 14.33007,15 h 215.91017 c 2.79473,0 5.04492,2.25019 5.04492,5.04493 v 215.91015 c 0,2.79473 -2.25019,5.04492 -5.04492,5.04492 H 584.74848 c -2.79473,0 -5.04492,-2.25019 -5.04492,-5.04492 V 578.57549 c 0,-2.79474 2.25019,-5.04493 5.04492,-5.04493 z"
       style="fill:#000000;fill-opacity:1;stroke:#ff605b;stroke-width:5.0999999;stroke-miterlimit:4;stroke-dasharray:none;stroke-opacity:1"
       inkscape:export-filename="/home/mateo/Escritorio/redBtnDL.png"
       inkscape:export-xdpi="88.242043"
       inkscape:export-ydpi="88.242043" />
    <rect
       inkscape:export-ydpi="90"
       inkscape:export-xdpi="90"
       style="fill:#cdaf00;fill-opacity:1"
       id="rect4281"
       width="256"
       height="256"
       x="-1115.6681"
       y="257.5051"
       ry="0"
       transform="scale(-1,1)" />
    <path
       inkscape:connector-curvature="0"
       id="path4283"
       d="m 865.38295,257.5051 c -3.16572,0 -5.71485,2.54913 -5.71485,5.71485 v 244.57031 c 0,3.16571 2.54913,5.71484 5.71485,5.71484 h 244.57035 c 3.1657,0 5.7148,-2.54913 5.7148,-5.71484 V 263.21995 c 0,-3.16572 -2.5491,-5.71485 -5.7148,-5.71485 z m 14.33007,15 h 215.91018 c 2.7947,0 5.0449,2.25019 5.0449,5.04493 v 215.91015 c 0,2.79473 -2.2502,5.04492 -5.0449,5.04492 H 879.71302 c -2.79473,0 -5.04492,-2.25019 -5.04492,-5.04492 V 277.55003 c 0,-2.79474 2.25019,-5.04493 5.04492,-5.04493 z"
       style="fill:#000000;fill-opacity:1;stroke:#ffe54b;stroke-width:5.0999999;stroke-miterlimit:4;stroke-dasharray:none;stroke-opacity:1"
       inkscape:export-filename="/home/mateo/Escritorio/yellowBtnL.png"
       inkscape:export-xdpi="88.242043"
       inkscape:export-ydpi="88.242043" />
    <rect
       transform="scale(-1,1)"
       ry="0"
       y="558.53058"
       x="-1115.6681"
       height="256"
       width="256"
       id="rect4285"
       style="fill:#ffe54b;fill-opacity:1"
       inkscape:export-xdpi="90"
       inkscape:export-ydpi="90" />
    <path
       style="fill:#000000;fill-opacity:1;stroke:#ffe54b;stroke-width:5.0999999;stroke-miterlimit:4;stroke-dasharray:none;stroke-opacity:1"
       d="m 865.38295,558.53056 c -3.16572,0 -5.71485,2.54913 -5.71485,5.71485 v 244.57031 c 0,3.16571 2.54913,5.71484 5.71485,5.71484 h 244.57035 c 3.1657,0 5.7148,-2.54913 5.7148,-5.71484 V 564.24541 c 0,-3.16572 -2.5491,-5.71485 -5.7148,-5.71485 z m 14.33007,15 h 215.91018 c 2.7947,0 5.0449,2.25019 5.0449,5.04493 v 215.91015 c 0,2.79473 -2.2502,5.04492 -5.0449,5.04492 H 879.71302 c -2.79473,0 -5.04492,-2.25019 -5.04492,-5.04492 V 578.57549 c 0,-2.79474 2.25019,-5.04493 5.04492,-5.04493 z"
       id="path4287"
       inkscape:connector-curvature="0"
       inkscape:export-filename="/home/mateo/Escritorio/yellowBtnDL.png"
       inkscape:export-xdpi="88.242043"
       inkscape:export-ydpi="88.242043" />
    <rect
       transform="scale(-1,1)"
       ry="0"
       y="257.5051"
       x="128.89333"
       height="256"
       width="256"
       id="rect4289"
       style="fill:#084d2d;fill-opacity:1"
       inkscape:export-xdpi="90"
       inkscape:export-ydpi="90" />
    <path
       style="fill:#000000;fill-opacity:1;stroke:#15d492;stroke-width:5.0999999;stroke-miterlimit:4;stroke-dasharray:none;stroke-opacity:1"
       d="m -379.17848,257.5051 c -3.16572,0 -5.71485,2.54913 -5.71485,5.71485 v 244.57031 c 0,3.16571 2.54913,5.71484 5.71485,5.71484 h 244.57032 c 3.16571,0 5.71484,-2.54913 5.71484,-5.71484 V 263.21995 c 0,-3.16572 -2.54913,-5.71485 -5.71484,-5.71485 z m 14.33007,15 h 215.91017 c 2.79473,0 5.04492,2.25019 5.04492,5.04493 v 215.91015 c 0,2.79473 -2.25019,5.04492 -5.04492,5.04492 h -215.91017 c -2.79473,0 -5.04492,-2.25019 -5.04492,-5.04492 V 277.55003 c 0,-2.79474 2.25019,-5.04493 5.04492,-5.04493 z"
       id="path4291"
       inkscape:connector-curvature="0"
       inkscape:export-filename="/home/mateo/Escritorio/okBtnL.png"
       inkscape:export-xdpi="88.242043"
       inkscape:export-ydpi="88.242043" />
    <g
       id="g4223"
       transform="translate(-675.57609,-602.75923)"
       style="fill:#8df2c3;fill-opacity:1">
      <path
         sodipodi:nodetypes="sssssss"
         inkscape:connector-curvature="0"
         id="path4225"
         d="m 931.84873,439.15134 82.81537,5 c 11.3038,0.68247 20.4412,9.11677 20.4412,20.4412 0,11.32442 -9.1374,21.12367 -20.4412,20.4412 l -82.81537,-5 c -11.30385,-0.68247 -20.4412,-9.11678 -20.4412,-20.4412 0,-11.32443 9.13735,-21.12367 20.4412,-20.4412 z"
         style="fill:#8df2c3;fill-opacity:1"
         transform="rotate(45)" />
      <rect
         ry="20.4412"
         y="-1034.1527"
         x="281.57434"
         height="40.882401"
         width="204.41202"
         id="rect4227"
         style="fill:#8df2c3;fill-opacity:1"
         transform="rotate(135)" />
    </g>
    <rect
       inkscape:export-ydpi="90"
       inkscape:export-xdpi="90"
       style="fill:#15d492;fill-opacity:1"
       id="rect4293"
       width="256"
       height="256"
       x="128.89333"
       y="558.53058"
       ry="0"
       transform="scale(-1,1)" />
    <path
       inkscape:connector-curvature="0"
       id="path4295"
       d="m -379.17848,558.53056 c -3.16572,0 -5.71485,2.54913 -5.71485,5.71485 v 244.57031 c 0,3.16571 2.54913,5.71484 5.71485,5.71484 h 244.57032 c 3.16571,0 5.71484,-2.54913 5.71484,-5.71484 V 564.24541 c 0,-3.16572 -2.54913,-5.71485 -5.71484,-5.71485 z m 14.33007,15 h 215.91017 c 2.79473,0 5.04492,2.25019 5.04492,5.04493 v 215.91015 c 0,2.79473 -2.25019,5.04492 -5.04492,5.04492 h -215.91017 c -2.79473,0 -5.04492,-2.25019 -5.04492,-5.04492 V 578.57549 c 0,-2.79474 2.25019,-5.04493 5.04492,-5.04493 z"
       style="fill:#000000;fill-opacity:1;stroke:#15d492;stroke-width:5.0999999;stroke-miterlimit:4;stroke-dasharray:none;stroke-opacity:1"
       inkscape:export-filename="/home/mateo/Escritorio/okBtnDL.png"
       inkscape:export-xdpi="88.242043"
       inkscape:export-ydpi="88.242043" />
    <g
       style="fill:#084a2c;fill-opacity:1"
       transform="translate(-675.57609,-301.73377)"
       id="g4303">
      <path
         transform="rotate(45)"
         style="fill:#084a2c;fill-opacity:1"
         d="m 931.84873,439.15134 82.81537,5 c 11.3038,0.68247 20.4412,9.11677 20.4412,20.4412 0,11.32442 -9.1374,21.12367 -20.4412,20.4412 l -82.81537,-5 c -11.30385,-0.68247 -20.4412,-9.11678 -20.4412,-20.4412 0,-11.32443 9.13735,-21.12367 20.4412,-20.4412 z"
         id="path4305"
         inkscape:connector-curvature="0"
         sodipodi:nodetypes="sssssss" />
      <rect
         transform="rotate(135)"
         style="fill:#084a2c;fill-opacity:1"
         id="rect4307"
         width="204.41202"
         height="40.882401"
         x="281.57434"
         y="-1034.1527"
         ry="20.4412" />
    </g>
    <rect
       inkscape:export-ydpi="90"
       inkscape:export-xdpi="90"
       style="fill:#e20700;fill-opacity:1"
       id="rect4309"
       width="256"
       height="256"
       x="484.41354"
       y="257.5051"
       ry="0"
       transform="scale(-1,1)" />
    <path
       inkscape:connector-curvature="0"
       id="path4311"
       d="m -734.69868,257.5051 c -3.16572,0 -5.71485,2.54913 -5.71485,5.71485 v 244.57031 c 0,3.16571 2.54913,5.71484 5.71485,5.71484 h 244.57032 c 3.16571,0 5.71484,-2.54913 5.71484,-5.71484 V 263.21995 c 0,-3.16572 -2.54913,-5.71485 -5.71484,-5.71485 z m 14.33007,15 h 215.91017 c 2.79473,0 5.04492,2.25019 5.04492,5.04493 v 215.91015 c 0,2.79473 -2.25019,5.04492 -5.04492,5.04492 h -215.91017 c -2.79473,0 -5.04492,-2.25019 -5.04492,-5.04492 V 277.55003 c 0,-2.79474 2.25019,-5.04493 5.04492,-5.04493 z"
       style="fill:#000000;fill-opacity:1;stroke:#ff605b;stroke-width:5.0999999;stroke-miterlimit:4;stroke-dasharray:none;stroke-opacity:1"
       inkscape:export-filename="/home/mateo/Escritorio/cancelBtnL.png"
       inkscape:export-xdpi="88.242043"
       inkscape:export-ydpi="88.242043" />
    <g
       id="g4231"
       transform="matrix(1.0117878,1.0117878,-1.0117878,1.0117878,-484.99542,-369.22145)"
       style="fill:#ffd1cf;fill-opacity:1">
      <rect
         ry="14.285714"
         y="421.64792"
         x="238.57143"
         height="28.571428"
         width="142.85715"
         id="rect4233"
         style="fill:#ffd1cf;fill-opacity:1" />
      <rect
         transform="rotate(90)"
         style="fill:#ffd1cf;fill-opacity:1"
         id="rect4235"
         width="142.85715"
         height="28.571428"
         x="364.50507"
         y="-324.28571"
         ry="14.285714" />
    </g>
    <rect
       transform="scale(-1,1)"
       ry="0"
       y="558.53058"
       x="484.41354"
       height="256"
       width="256"
       id="rect4313"
       style="fill:#ff605b;fill-opacity:1"
       inkscape:export-xdpi="90"
       inkscape:export-ydpi="90" />
    <path
       style="fill:#000000;fill-opacity:1;stroke:#ff605b;stroke-width:5.0999999;stroke-miterlimit:4;stroke-dasharray:none;stroke-opacity:1"
       d="m -734.69868,558.53056 c -3.16572,0 -5.71485,2.54913 -5.71485,5.71485 v 244.57031 c 0,3.16571 2.54913,5.71484 5.71485,5.71484 h 244.57032 c 3.16571,0 5.71484,-2.54913 5.71484,-5.71484 V 564.24541 c 0,-3.16572 -2.54913,-5.71485 -5.71484,-5.71485 z m 14.33007,15 h 215.91017 c 2.79473,0 5.04492,2.25019 5.04492,5.04493 v 215.91015 c 0,2.79473 -2.25019,5.04492 -5.04492,5.04492 h -215.91017 c -2.79473,0 -5.04492,-2.25019 -5.04492,-5.04492 V 578.57549 c 0,-2.79474 2.25019,-5.04493 5.04492,-5.04493 z"
       id="path4315"
       inkscape:connector-curvature="0"
       inkscape:export-filename="/home/mateo/Escritorio/cancelBtnDL.png"
       inkscape:export-xdpi="88.242043"
       inkscape:export-ydpi="88.242043" />
    <g
       style="fill:#320200;fill-opacity:1"
       transform="matrix(1.0117878,1.0117878,-1.0117878,1.0117878,-484.9954,-68.195988)"
       id="g4317">
      <rect
         style="fill:#320200;fill-opacity:1"
         id="rect4319"
         width="142.85715"
         height="28.571428"
         x="238.57143"
         y="421.64792"
         ry="14.285714" />
      <rect
         ry="14.285714"
         y="-324.28571"
         x="364.50507"
         height="28.571428"
         width="142.85715"
         id="rect4321"
         style="fill:#320200;fill-opacity:1"
         transform="rotate(90)" />
    </g>
    <rect
       inkscape:export-ydpi="90"
       inkscape:export-xdpi="90"
       style="fill:#084d2d;fill-opacity:1"
       id="rect4190"
       width="256"
       height="256"
       x="128.89333"
       y="866.07654"
       ry="0"
       transform="scale(-1,1)" />
    <path
       inkscape:export-ydpi="88.242043"
       inkscape:export-xdpi="88.242043"
       inkscape:export-filename="/home/mateo/Escritorio/okBtnL.png"
       inkscape:connector-curvature="0"
       id="path4192"
       d="m -379.17848,866.07654 c -3.16572,0 -5.71485,2.54913 -5.71485,5.71485 v 244.57031 c 0,3.1657 2.54913,5.7148 5.71485,5.7148 h 244.57032 c 3.16571,0 5.71484,-2.5491 5.71484,-5.7148 V 871.79139 c 0,-3.16572 -2.54913,-5.71485 -5.71484,-5.71485 z m 14.33007,15 h 215.91017 c 2.79473,0 5.04492,2.25019 5.04492,5.04493 v 215.91013 c 0,2.7947 -2.25019,5.0449 -5.04492,5.0449 h -215.91017 c -2.79473,0 -5.04492,-2.2502 -5.04492,-5.0449 V 886.12147 c 0,-2.79474 2.25019,-5.04493 5.04492,-5.04493 z"
       style="fill:#000000;fill-opacity:1;stroke:#15d492;stroke-width:5.0999999;stroke-miterlimit:4;stroke-dasharray:none;stroke-opacity:1" />
    <rect
       transform="scale(-1,1)"
       ry="0"
       y="1167.1021"
       x="128.89333"
       height="256"
       width="256"
       id="rect4200"
       style="fill:#15d492;fill-opacity:1"
       inkscape:export-xdpi="90"
       inkscape:export-ydpi="90" />
    <path
       inkscape:export-ydpi="88.242043"
       inkscape:export-xdpi="88.242043"
       inkscape:export-filename="/home/mateo/Escritorio/okBtnDL.png"
       style="fill:#000000;fill-opacity:1;stroke:#15d492;stroke-width:5.0999999;stroke-miterlimit:4;stroke-dasharray:none;stroke-opacity:1"
       d="m -379.17848,1167.102 c -3.16572,0 -5.71485,2.5491 -5.71485,5.7148 v 244.5704 c 0,3.1657 2.54913,5.7148 5.71485,5.7148 h 244.57032 c 3.16571,0 5.71484,-2.5491 5.71484,-5.7148 v -244.5704 c 0,-3.1657 -2.54913,-5.7148 -5.71484,-5.7148 z m 14.33007,15 h 215.91017 c 2.79473,0 5.04492,2.2502 5.04492,5.0449 v 215.9102 c 0,2.7947 -2.25019,5.0449 -5.04492,5.0449 h -215.91017 c -2.79473,0 -5.04492,-2.2502 -5.04492,-5.0449 v -215.9102 c 0,-2.7947 2.25019,-5.0449 5.04492,-5.0449 z"
       id="path4202"
       inkscape:connector-curvature="0" />
    <g
       id="g4216"
       transform="matrix(0,1.3177469,-1.3177469,0,317.55688,585.575)"
       style="fill:#8df2c3;fill-opacity:1">
      <rect
         ry="14.285714"
         y="421.64792"
         x="238.57143"
         height="28.571428"
         width="142.85715"
         id="rect4218"
         style="fill:#8df2c3;fill-opacity:1" />
      <rect
         transform="rotate(90)"
         style="fill:#8df2c3;fill-opacity:1"
         id="rect4220"
         width="142.85715"
         height="28.571428"
         x="364.50507"
         y="-324.28571"
         ry="14.285714" />
    </g>
    <g
       style="fill:#084a2c;fill-opacity:1"
       transform="matrix(0,1.3177469,-1.3177469,0,317.55688,886.60046)"
       id="g4222">
      <rect
         style="fill:#084a2c;fill-opacity:1"
         id="rect4224"
         width="142.85715"
         height="28.571428"
         x="238.57143"
         y="421.64792"
         ry="14.285714" />
      <rect
         ry="14.285714"
         y="-324.28571"
         x="364.50507"
         height="28.571428"
         width="142.85715"
         id="rect4226"
         style="fill:#084a2c;fill-opacity:1"
         transform="rotate(90)" />
    </g>
    <rect
       transform="scale(-1,1)"
       ry="0"
       y="866.07654"
       x="484.41354"
       height="256"
       width="256"
       id="rect4248"
       style="fill:#e20700;fill-opacity:1"
       inkscape:export-xdpi="90"
       inkscape:export-ydpi="90" />
    <path
       inkscape:export-ydpi="88.242043"
       inkscape:export-xdpi="88.242043"
       inkscape:export-filename="/home/mateo/Escritorio/cancelBtnL.png"
       style="fill:#000000;fill-opacity:1;stroke:#ff605b;stroke-width:5.0999999;stroke-miterlimit:4;stroke-dasharray:none;stroke-opacity:1"
       d="m -734.69868,866.07651 c -3.16572,0 -5.71485,2.54913 -5.71485,5.71485 v 244.57024 c 0,3.1657 2.54913,5.7149 5.71485,5.7149 h 244.57032 c 3.16571,0 5.71484,-2.5492 5.71484,-5.7149 V 871.79136 c 0,-3.16572 -2.54913,-5.71485 -5.71484,-5.71485 z m 14.33007,15 h 215.91017 c 2.79473,0 5.04492,2.25019 5.04492,5.04493 v 215.91016 c 0,2.7947 -2.25019,5.0449 -5.04492,5.0449 h -215.91017 c -2.79473,0 -5.04492,-2.2502 -5.04492,-5.0449 V 886.12144 c 0,-2.79474 2.25019,-5.04493 5.04492,-5.04493 z"
       id="path4250"
       inkscape:connector-curvature="0" />
    <rect
       inkscape:export-ydpi="90"
       inkscape:export-xdpi="90"
       style="fill:#ff605b;fill-opacity:1"
       id="rect4259"
       width="256"
       height="256"
       x="484.41354"
       y="1167.1021"
       ry="0"
       transform="scale(-1,1)" />
    <path
       inkscape:export-ydpi="88.242043"
       inkscape:export-xdpi="88.242043"
       inkscape:export-filename="/home/mateo/Escritorio/cancelBtnDL.png"
       inkscape:connector-curvature="0"
       id="path4261"
       d="m -734.69868,1167.102 c -3.16572,0 -5.71485,2.5492 -5.71485,5.7149 v 244.5703 c 0,3.1657 2.54913,5.7148 5.71485,5.7148 h 244.57032 c 3.16571,0 5.71484,-2.5491 5.71484,-5.7148 v -244.5703 c 0,-3.1657 -2.54913,-5.7149 -5.71484,-5.7149 z m 14.33007,15 h 215.91017 c 2.79473,0 5.04492,2.2502 5.04492,5.045 v 215.9101 c 0,2.7947 -2.25019,5.0449 -5.04492,5.0449 h -215.91017 c -2.79473,0 -5.04492,-2.2502 -5.04492,-5.0449 V 1187.147 c 0,-2.7948 2.25019,-5.045 5.04492,-5.045 z"
       style="fill:#000000;fill-opacity:1;stroke:#ff605b;stroke-width:5.0999999;stroke-miterlimit:4;stroke-dasharray:none;stroke-opacity:1" />
    <g
       style="fill:#ffd1cf;fill-opacity:1"
       transform="matrix(0,1.3177469,-1.1314727,0,-119.1665,585.57497)"
       id="g4270">
      <rect
         ry="14.285714"
         y="-324.28571"
         x="364.50507"
         height="28.571428"
         width="142.85715"
         id="rect4274"
         style="fill:#ffd1cf;fill-opacity:1"
         transform="rotate(90)" />
    </g>
    <g
       id="g4276"
       transform="matrix(0,1.3177469,-1.1314727,0,-119.1665,886.60052)"
       style="fill:#320200;fill-opacity:1">
      <rect
         transform="rotate(90)"
         style="fill:#320200;fill-opacity:1"
         id="rect4278"
         width="142.85715"
         height="28.571428"
         x="364.50507"
         y="-324.28571"
         ry="14.285714" />
    </g>
  </g>
</svg>
